<svg xmlns="http://www.w3.org/2000/svg" viewBox="0 0 88 88"><g data-name="Vespa Deliveryv"><path d="M76 47h3a1 1 0 0 0 1-1V36a1 1 0 0 0-1-1h-3a6 6 0 0 0 0 12zm0-10h2v8h-2a4 4 0 0 1 0-8z" style="fill:black"/><path d="M78 66.362V61.22a12.417 12.417 0 0 0-7.634-11.505c-.066-.028-.132-.058-.199-.085-.212-.084-.428-.16-.646-.232-.131-.045-.26-.091-.393-.131-.044-.013-.085-.03-.128-.043V38.05a4.05 4.05 0 0 0-3.31-3.975A3.5 3.5 0 0 0 62.5 32H47.445l-8.014-8.905A7.002 7.002 0 0 0 43 17v-3h5a5.006 5.006 0 0 0 5-5 1 1 0 0 0-1-1h-9V7a7 7 0 0 0-14 0v10a6.978 6.978 0 0 0 2.374 5.24.958.958 0 0 0-.081.053l-4 4a.996.996 0 0 0-.246.406l-6 19L21 46v5h-4V39h4a1 1 0 0 0 0-2V22a1 1 0 0 0-1-1H2a1 1 0 0 0-1 1v15a1 1 0 0 0 0 2h3.34L10 52.205v4.875A7.005 7.005 0 0 0 4 64v8H1a1 1 0 0 0-1 1 7.008 7.008 0 0 0 7 7h5.059a8.996 8.996 0 0 0 17.882 0h34.118a8.996 8.996 0 0 0 17.882 0H87a1 1 0 0 0 1-1 12.939 12.939 0 0 0-10-12.638zm-9-15.03.114.041a10.477 10.477 0 0 1 4.576 3.283A10.286 10.286 0 0 1 75.922 60H74a5.006 5.006 0 0 1-5-5zm-7.988-1.077c.002 9.243.004 20.413 0 23.745H58.9A5.008 5.008 0 0 0 54 70h-.27l-6.56-20.496A6.458 6.458 0 0 0 41.002 45h-2.574l2.976-8.183 1.89 1.89A1 1 0 0 0 44 39h17.01zM40.748 74 36 57.857V53h4.268L46 71.153V74zM12 53h22v4H12zm38.662 13.976L51.63 70h-3.898l-.947-3h3.757a.934.934 0 0 0 .12-.024zM48 72h6a3.006 3.006 0 0 1 2.83 2H48zm-1-38h15.5a1.5 1.5 0 1 1 0 3H44.414l-1.998-1.998 2.658-2.647 1.183 1.314A1 1 0 0 0 47 34zm1-22H31v-2h19.83A3.006 3.006 0 0 1 48 12zM31 7a5 5 0 0 1 10 0v1H31zm0 10v-3h10v3a5 5 0 0 1-10 0zm-2.12 10.534L32.414 24h5.14l6.18 6.866L41 33.587l-2.294-2.294a1 1 0 0 0-1.414 1.414l2.55 2.55L36.3 45H23.364zM23 47h18.001a4.465 4.465 0 0 1 4.266 3.114L50.03 65h-3.877l-4.2-13.301A.999.999 0 0 0 41 51H23zm-4-22h-4v-2h4zm-6 2.131-1.445-.963a1 1 0 0 0-1.11 0L9 27.131V23h4zM3 23h4v2H3zm0 4h4v2a1 1 0 0 0 1.555.832L11 28.202l2.445 1.63A1 1 0 0 0 15 29v-2h4v10H3zm12 12v12h-3.34L6.515 39zM6 64a5.006 5.006 0 0 1 5-5h23.252l4.789 16.282A1 1 0 0 0 40 76h22.01c1 0 1-.924 1.002-1.598l.002-1.679-.004-33.76a3.526 3.526 0 0 0 2.912-2.718A2.051 2.051 0 0 1 67 38.05V55a7.008 7.008 0 0 0 7 7h2v16H22v-5a1 1 0 0 0-1-1H6zm69.83 16a3.001 3.001 0 0 1-5.66 0zm-52 0a3.001 3.001 0 0 1-5.66 0zM2.1 74H20v4H7a5.008 5.008 0 0 1-4.9-4zM21 86a7.01 7.01 0 0 1-6.929-6h2.03a5 5 0 0 0 9.798 0h2.03A7.01 7.01 0 0 1 21 86zm52 0a7.01 7.01 0 0 1-6.929-6h2.03a5 5 0 0 0 9.798 0h2.03A7.01 7.01 0 0 1 73 86zm5-8v-9.585A10.946 10.946 0 0 1 85.955 78zM83 42h4a1 1 0 0 0 0-2h-4a1 1 0 0 0 0 2zM83.555 37.832l3-2a1 1 0 1 0-1.11-1.664l-3 2a1 1 0 0 0 1.11 1.664zM82.168 44.445a1 1 0 0 0 .277 1.387l3 2a1 1 0 0 0 1.11-1.664l-3-2a.999.999 0 0 0-1.387.277z" fill="black"/></g></svg>