<svg xmlns="http://www.w3.org/2000/svg" viewBox="0 0 48 48"><g data-name="24-Hamburger&amp;French fries"><path d="M27.9 28H8.105A5.133 5.133 0 0 1 3 22.852a5.07 5.07 0 0 1 .587-2.4C4.789 18.222 9.347 14 18 14s13.211 4.222 14.413 6.454a5.07 5.07 0 0 1 .587 2.4A5.133 5.133 0 0 1 27.9 28zM18 16c-7.994 0-11.843 3.9-12.652 5.4A3.075 3.075 0 0 0 5 22.852 3.131 3.131 0 0 0 8.105 26H27.9a3.131 3.131 0 0 0 3.1-3.148 3.075 3.075 0 0 0-.348-1.45C29.843 19.9 25.994 16 18 16z"/><path d="M13 18h2v2h-2zM17 17h2v2h-2zM21 18h2v2h-2zM9 20h2v2H9zM25 20h2v2h-2zM15 21h2v2h-2zM19 21h2v2h-2zM28 44H8a5.006 5.006 0 0 1-5-5v-2a1 1 0 0 1 1-1h4v2H5v1a3 3 0 0 0 3 3h20a3 3 0 0 0 3-3v-1h-8v-2h9a1 1 0 0 1 1 1v2a5.006 5.006 0 0 1-5 5zM8 34H7a4 4 0 0 1-4-4 1 1 0 0 1 .293-.707l1-1 1.414 1.414-.671.671A2 2 0 0 0 7 32h1a2 2 0 0 0 2-2v-1h2v1a4 4 0 0 1-4 4z"/><path d="M15 34h-1a4 4 0 0 1-4-4v-1h2v1a2 2 0 0 0 2 2h1a2 2 0 0 0 2-2v-1h2v1a4 4 0 0 1-4 4z"/><path d="M22 34h-1a4 4 0 0 1-4-4v-1h2v1a2 2 0 0 0 2 2h1a2 2 0 0 0 2-2v-1h2v1a4 4 0 0 1-4 4z"/><path d="M29 34h-1a4 4 0 0 1-4-4v-1h2v1a2 2 0 0 0 2 2h1a2 2 0 0 0 1.964-1.622l-.671-.671 1.414-1.414 1 1A1 1 0 0 1 33 30a4 4 0 0 1-4 4z"/><path d="M18 41a1 1 0 0 1-.537-.156l-11-7 1.074-1.688L18 38.814l10.463-6.658 1.074 1.688-11 7A1 1 0 0 1 18 41zM47 48H1a1 1 0 0 1-1-1v-3h2v2h44v-2h2v3a1 1 0 0 1-1 1z"/><path d="M44 44H34v-2h9.087L46 9.91l2 .18-3 33a1 1 0 0 1-1 .91z"/><path d="M34 19h12v2H34zM45 34h-4a1 1 0 0 1-.707-.293l-6-6 1.414-1.414L41.414 32H45z"/><path d="M44 20h-2V8h-2v10h-2V7a1 1 0 0 1 1-1h4a1 1 0 0 1 1 1z"/><path d="M40 19h-2V5h-2v13h-2V4a1 1 0 0 1 1-1h4a1 1 0 0 1 1 1z"/><path d="M36 19h-2V2h-2v14h-2V1a1 1 0 0 1 1-1h4a1 1 0 0 1 1 1z"/><path d="M32 16h-2V6h-2v8h-2V5a1 1 0 0 1 1-1h4a1 1 0 0 1 1 1z"/><path d="M28 13h-2V4h-2v9h-2V3a1 1 0 0 1 1-1h4a1 1 0 0 1 1 1z"/><path d="M24 12h-2V9h-2v3h-2V8a1 1 0 0 1 1-1h4a1 1 0 0 1 1 1zM43 9h5v2h-5z"/></g></svg>